<svg width="100" height="100" viewBox="0 0 100 100" fill="none" xmlns="http://www.w3.org/2000/svg">
<rect x="0.5" y="0.5" width="99" height="98.983" rx="19.5" fill="#E44B4B" stroke="black"/>
<rect x="0.5" y="40.4932" width="99" height="18.9966" fill="#F2CC33" stroke="black"/>
<rect x="59.5004" y="0.500426" width="98.983" height="19" transform="rotate(89.9511 59.5004 0.500426)" fill="#F2CC33" stroke="black"/>
<path d="M50.3029 54.2195L22.3822 64.3935C19.4469 65.4631 16.3416 63.2896 16.3416 60.1655L16.3416 39.8175C16.3416 36.6934 19.4469 34.5198 22.3822 35.5894L50.3029 45.7634C54.2487 47.2012 54.2486 52.7817 50.3029 54.2195Z" fill="#F2CC33" stroke="black"/>
<path d="M49.6971 54.2195L77.6178 64.3935C80.5531 65.4631 83.6584 63.2896 83.6584 60.1655V39.8175C83.6584 36.6934 80.5531 34.5198 77.6178 35.5894L49.6971 45.7634C45.7513 47.2012 45.7514 52.7817 49.6971 54.2195Z" fill="#F2CC33" stroke="black"/>
<rect x="38.1238" y="38.4935" width="23.7525" height="23.9957" rx="4.5" fill="#F2CC33" stroke="black"/>
</svg>
